<?xml version="1.0" encoding="utf-8"?>
<!-- Generator: Adobe Illustrator 16.0.0, SVG Export Plug-In . SVG Version: 6.00 Build 0)  -->
<!DOCTYPE svg PUBLIC "-//W3C//DTD SVG 1.1//EN" "http://www.w3.org/Graphics/SVG/1.1/DTD/svg11.dtd">
<svg version="1.1" id="Layer_1" xmlns="http://www.w3.org/2000/svg" xmlns:xlink="http://www.w3.org/1999/xlink" x="0px" y="0px"
	 width="124.959px" height="40.458px" viewBox="0 0 124.959 40.458" enable-background="new 0 0 124.959 40.458"
	 xml:space="preserve">
<g>
	<polygon fill="#24AE5F" points="116.257,1.865 114.42,9.644 123.171,18.07 123.063,1.756 	"/>
	<polygon fill="#24AE5F" points="116.257,38.543 114.42,30.765 123.171,22.338 123.063,38.651 	"/>
	<path fill="#22313F" d="M114.42,9.644c0,0-1.621,6.698-5.186,10.479l-3.781-4.214c0,0-2.377-4.213-3.998-5.078
		c0,0-1.729,7.131-3.565,9.075c0,0-7.346-13.396-23.66-18.258h19.123C93.353,1.648,105.345,2.297,114.42,9.644z"/>
	<path fill="#22313F" d="M114.42,30.765c0,0-1.621-6.698-5.186-10.479l-3.781,4.213c0,0-2.377,4.213-3.998,5.078
		c0,0-1.729-7.13-3.565-9.075c0,0-7.346,13.397-23.66,18.258h19.123C93.353,38.759,105.345,38.111,114.42,30.765z"/>
	<path fill="#22313F" d="M109.559,19.691c0,0,4.754,7.455,4.862,10.372c0,0,4.97-2.593,8.751-10.372c0,0-5.834-8.427-8.751-10.047
		C114.42,9.644,112.691,16.125,109.559,19.691z"/>
	<polygon fill="#24AE5F" points="8.651,1.865 10.488,9.644 1.737,18.07 1.845,1.756 	"/>
	<polygon fill="#24AE5F" points="8.651,38.543 10.488,30.765 1.737,22.338 1.845,38.651 	"/>
	<path fill="#22313F" d="M10.488,9.644c0,0,1.621,6.698,5.186,10.479l3.781-4.214c0,0,2.376-4.213,3.997-5.078
		c0,0,1.729,7.131,3.565,9.075c0,0,7.347-13.396,23.66-18.258H31.555C31.555,1.648,19.563,2.297,10.488,9.644z"/>
	<path fill="#22313F" d="M10.488,30.765c0,0,1.621-6.698,5.186-10.479l3.781,4.213c0,0,2.376,4.213,3.997,5.078
		c0,0,1.729-7.13,3.565-9.075c0,0,7.347,13.397,23.66,18.258H31.555C31.555,38.759,19.563,38.111,10.488,30.765z"/>
	<path fill="#22313F" d="M15.35,19.691c0,0-4.754,7.455-4.862,10.372c0,0-4.97-2.593-8.751-10.372c0,0,5.834-8.427,8.751-10.047
		C10.488,9.644,12.216,16.125,15.35,19.691z"/>
	<path fill="#22313F" stroke="#FFFFFF" stroke-width="0.4582" stroke-linecap="round" stroke-linejoin="round" d="M82.62,36.928
		c9.686-4.423,16.781-12.933,19.617-23.185c0.893,1.028,1.621,2.205,2.126,3.493c0.984,0.941,1.905,1.94,2.76,2.991l2.079-2.839
		c-0.786-0.916-1.621-1.793-2.502-2.629c-1.448-2.889-3.788-5.234-6.677-6.687C97.995,23.45,85.465,36.156,68.914,36.928H82.62z"/>
	<path fill="#22313F" stroke="#FFFFFF" stroke-width="0.4582" stroke-linecap="round" stroke-linejoin="round" d="M114.589,0.23
		H94.326c0,0,7.779,0.503,13.418,3.291h6.569C114.313,3.521,114.428,3.118,114.589,0.23z"/>
	<path fill="#22313F" stroke="#FFFFFF" stroke-width="0.4582" stroke-linecap="round" stroke-linejoin="round" d="M115.341,12.863
		c-1.911,4.851-4.845,9.239-8.641,12.837c-1.448,2.889-3.788,5.234-6.677,6.687c-0.392-2.973-1.163-5.867-2.292-8.571
		c0.519-0.68,2.033-3.593,2.033-3.593c1.019,2.064,1.849,4.236,2.474,6.493c0.893-1.028,1.621-2.205,2.126-3.493
		c3.721-3.561,6.545-7.946,8.277-12.772C112.641,10.451,115.051,12.427,115.341,12.863z"/>
	<path fill="#22313F" stroke="#FFFFFF" stroke-width="0.4582" stroke-linecap="round" stroke-linejoin="round" d="M82.679,3.52
		l9.704,0c12.612,0,23.114,6.87,28.689,16.723l0.367-0.634v-4.995C114.985,5.931,104.67,0.23,92.405,0.23H69.207
		C69.207,0.23,76.824,0.593,82.679,3.52z"/>
	<path fill="#22313F" stroke="#FFFFFF" stroke-width="0.4582" stroke-linecap="round" stroke-linejoin="round" d="M114.563,40.229
		H94.018c8.022-0.33,13.791-3.313,13.791-3.313h6.504C114.313,36.917,114.63,40.037,114.563,40.229z"/>
	<path fill="#22313F" stroke="#FFFFFF" stroke-width="0.4582" stroke-linecap="round" stroke-linejoin="round" d="M117.651,36.917
		h3.789v-11c0,0,2.448-3.371,3.29-5.358v19.67h-10.155c-0.207-6.175-2.092-12.113-5.377-17.159c0.654-0.615,2.194-2.854,2.194-2.854
		C114.797,25.103,116.958,30.835,117.651,36.917z"/>
	<path fill="#22313F" stroke="#FFFFFF" stroke-width="0.4582" stroke-linecap="round" stroke-linejoin="round" d="M121.44,3.515
		v16.093c-1.607,3.003-3.64,5.714-6.068,8.081c0.933,2.327,1.171,3.546,1.171,3.546c3.374-3.002,6.145-6.63,8.187-10.691V0.23
		h-10.141c-0.075,2.286-0.381,4.536-0.905,6.72c0.538,0.308,2.858,2.33,2.858,2.33c0.522-1.871,0.898-3.794,1.121-5.754
		L121.44,3.515z"/>
	<path fill="#22313F" stroke="#FFFFFF" stroke-width="0.4582" stroke-linecap="round" stroke-linejoin="round" d="M92.417,36.928
		c7.756,0,14.739-2.599,20.232-6.873c0,0,0.821,2.409,1.026,3.479c-5.858,4.197-13.166,6.695-21.285,6.695l-34.808-0.001
		c-13.182,0-24.036-6.591-30.347-16.388c0,0,1.505-3.318,1.762-3.634c5.574,9.854,16.038,16.722,28.65,16.722H92.417z"/>
	<path fill="#22313F" stroke="#FFFFFF" stroke-width="0.4582" stroke-linecap="round" stroke-linejoin="round" d="M42.339,3.542
		c-9.686,4.422-16.781,12.92-19.617,23.173c-0.893-1.028-1.621-2.205-2.126-3.493c-0.983-0.941-1.905-1.94-2.76-2.99l-2.079,2.838
		c0.786,0.916,1.621,1.794,2.501,2.629c1.449,2.889,3.789,5.234,6.678,6.687C26.964,17.008,39.494,4.313,56.045,3.542H42.339z"/>
	<path fill="#22313F" stroke="#FFFFFF" stroke-width="0.4582" stroke-linecap="round" stroke-linejoin="round" d="M10.37,40.228
		h20.264c0,0-7.779-0.512-13.418-3.299h-6.569C10.646,36.928,10.531,37.34,10.37,40.228z"/>
	<path fill="#22313F" stroke="#FFFFFF" stroke-width="0.4582" stroke-linecap="round" stroke-linejoin="round" d="M9.618,27.595
		c1.911-4.852,4.845-9.239,8.64-12.837c1.449-2.889,3.789-5.234,6.678-6.687c0.392,2.972,1.163,5.867,2.292,8.571
		c-0.519,0.681-2.033,3.593-2.033,3.593c-1.019-2.064-1.849-4.237-2.474-6.493c-0.893,1.028-1.621,2.205-2.126,3.493
		c-3.721,3.561-6.545,7.946-8.277,12.773C12.318,30.007,9.908,28.031,9.618,27.595z"/>
	<path fill="#22313F" stroke="#FFFFFF" stroke-width="0.4582" stroke-linecap="round" stroke-linejoin="round" d="M42.28,36.928
		h-9.704c-12.612,0-23.114-6.859-28.689-16.712l-0.367,0.633v4.995c6.455,8.683,16.77,14.383,29.035,14.383h23.198
		C55.752,40.228,48.135,39.855,42.28,36.928z"/>
	<path fill="#22313F" stroke="#FFFFFF" stroke-width="0.4582" stroke-linecap="round" stroke-linejoin="round" d="M10.396,0.229
		h20.544C22.919,0.559,17.15,3.542,17.15,3.542h-6.504C10.646,3.542,10.329,0.421,10.396,0.229z"/>
	<path fill="#22313F" stroke="#FFFFFF" stroke-width="0.4582" stroke-linecap="round" stroke-linejoin="round" d="M7.308,3.542
		H3.519v11c0,0-2.448,3.371-3.29,5.358V0.229h10.155c0.207,6.175,2.092,12.113,5.377,17.159c-0.654,0.615-2.194,2.854-2.194,2.854
		C10.162,15.355,8.002,9.623,7.308,3.542z"/>
	<path fill="#22313F" stroke="#FFFFFF" stroke-width="0.4582" stroke-linecap="round" stroke-linejoin="round" d="M3.519,36.938
		V20.849c1.607-3.003,3.64-5.713,6.068-8.081c-0.933-2.326-1.171-3.546-1.171-3.546c-3.374,3.002-6.145,6.63-8.187,10.691v20.314
		H10.37c0.075-2.286,0.381-4.536,0.905-6.72c-0.538-0.308-2.858-2.33-2.858-2.33c-0.521,1.87-0.898,3.79-1.121,5.75L3.519,36.938z"
		/>
	<path fill="#22313F" stroke="#FFFFFF" stroke-width="0.4582" stroke-linecap="round" stroke-linejoin="round" d="M67.311,3.523
		c12.612,0,23.076,6.875,28.65,16.729c0.257-0.316,1.762-3.634,1.762-3.634C91.412,6.822,80.557,0.23,67.375,0.23L32.568,0.229
		c-8.119,0-15.426,2.498-21.285,6.695c0.206,1.069,1.026,3.479,1.026,3.479c5.493-4.274,12.476-6.861,20.232-6.861L67.311,3.523z"/>
	<path fill="#22313F" stroke="#FFFFFF" stroke-width="0.1779" stroke-linecap="round" stroke-linejoin="round" d="M101.801,20.358
		c1.291,0.271,1.884,1.162,2.738,1.473s1.083-0.541,0.603-0.839c-0.48-0.299-0.404-0.424-0.404-0.424s0.189-0.152,0.753,0.225
		c0.452,0.302,0.962,0.127,1.023-0.442c-0.046-0.571-0.549-0.759-1.009-0.469c-0.574,0.363-0.759,0.206-0.759,0.206
		s-0.074-0.126,0.415-0.413c0.488-0.287,0.281-1.143-0.581-0.855c-0.861,0.289-1.474,1.16-2.771,1.398
		C101.81,20.217,101.701,20.268,101.801,20.358z"/>
	<path fill="#22313F" stroke="#FFFFFF" stroke-width="0.1779" stroke-linecap="round" stroke-linejoin="round" d="M102.015,20.556
		c0,0,1.256,0.871,1.497,2.937c0.079,0.678-0.216,1.095-0.551,1.079c-0.176-0.009-0.235-0.209-0.251-0.391
		c-0.016-0.177-0.242-0.27-0.299,0.011c-0.058,0.281-0.233,0.276-0.368,0.262c-0.116-0.012-0.416-0.274-0.127-0.864
		c0.246-0.503,0.29-2.222-0.049-2.764C101.527,20.283,102.015,20.556,102.015,20.556z"/>
	<path fill="#22313F" stroke="#FFFFFF" stroke-width="0.1779" stroke-linecap="round" stroke-linejoin="round" d="M102.033,20.021
		c0,0,1.239-0.702,1.563-2.781c0.105-0.674-0.177-1.102-0.513-1.097c-0.176,0.002-0.242,0.201-0.264,0.382
		c-0.022,0.177-0.251,0.261-0.299-0.021s-0.223-0.284-0.358-0.275c-0.117,0.008-0.425,0.26-0.157,0.859
		c0.229,0.511,0.248,2.128-0.11,2.659S102.033,20.021,102.033,20.021z"/>
	<path fill="#22313F" stroke="#FFFFFF" stroke-width="0.1779" stroke-linecap="round" stroke-linejoin="round" d="M100.005,20.313
		c0.073,0.09,0.18,0.351,0.729,0.338c0.755-0.018,0.565,0.379,0.794,0.348c0.224-0.031,0.149-0.486,0.083-0.675
		c0.077-0.166,0.164-0.639-0.064-0.678c-0.227-0.04-0.052,0.35-0.805,0.306c-0.548-0.033-0.685,0.166-0.741,0.268
		C100.001,20.219,99.949,20.244,100.005,20.313z"/>
	<path fill="#22313F" stroke="#FFFFFF" stroke-width="0.1408" stroke-linecap="round" stroke-linejoin="round" d="M120.88,28.442
		c0,0-1.966,0.744-1.966,2.09c0,1.134,0.496,1.435,0.496,1.435s-0.444-0.45-1.133-0.407c-0.85,0.053-0.913,1.012-0.903,1.417
		c0.018,0.708,0.496,1.683,1.931,1.93c0,0-1.027-0.549-1.027-1.311c0-0.761,0.531-0.85,0.797-0.85c0.602,0,1.151,0.549,1.151,1.24
		c0,0.691-0.248,1.417-1.612,2.108c0,0,2.32-0.036,2.32-2.232c0-1.523-0.797-1.594-0.797-3.631
		C120.136,29.522,120.88,28.442,120.88,28.442z"/>
	<path fill="#22313F" stroke="#FFFFFF" stroke-width="0.1408" stroke-linecap="round" stroke-linejoin="round" d="M120.977,11.815
		c0,0-1.966-0.744-1.966-2.09c0-1.133,0.496-1.435,0.496-1.435s-0.444,0.451-1.133,0.408c-0.851-0.054-0.914-1.013-0.903-1.417
		c0.018-0.708,0.496-1.683,1.93-1.93c0,0-1.027,0.549-1.027,1.311s0.531,0.85,0.797,0.85c0.602,0,1.151-0.549,1.151-1.24
		c0-0.691-0.248-1.417-1.611-2.108c0,0,2.32,0.035,2.32,2.232c0,1.523-0.797,1.594-0.797,3.631
		C120.233,10.734,120.977,11.815,120.977,11.815z"/>
	<path fill="#D2CECB" stroke="#FFFFFF" stroke-width="0.4582" stroke-linecap="round" stroke-linejoin="round" d="M114.529,39.382
		l-14.045,0c1.686-0.275,5.38-1.603,5.38-1.603h8.535L114.529,39.382z"/>
	<path fill="#24AE5F" stroke="#2B2927" stroke-width="0.3818" stroke-linecap="round" stroke-linejoin="round" d="M100.802,5.695
		c0.417-0.054,0.698-0.03,0.698-0.03s2.506,0.021,2.218,1.958c0,0-0.101,1.131-1.03,1.131s-1.059-1.231-1.059-1.231
		s0.637-0.046,0.842-0.432c0.368-0.691-0.271-1.023-0.271-1.023c-0.817-0.233-0.934,0.739-0.934,0.739
		c-0.671-3.209-4.802-2.093-4.802-2.093c4.123,0.35,3.266,3.775,5.596,4.451c1.71,0.497,1.978-0.696,1.978-0.696
		c0.496,2.859,1.604,4.34,2.859,4.842c1.732,0.694,1.927,3.136,1.927,3.136c1.081-2.745-1.209-3.479-1.209-3.479
		s1.569,0.415,2.17-1.407c0.833-2.525-1.198-3.282-2.538-3.705c-1.349-0.426-1.966-1.457-1.966-1.457
		c-0.259,2.787,1.85,2.799,1.85,2.799c-0.51,0.226-0.618,0.875-0.466,1.4c0.169,0.588,1.21,1.332,1.901,0.36
		c0.701-0.987-0.181-1.761-0.181-1.761s0.98,0.313,0.992,1.4c0.008,0.729-0.583,1.779-1.487,1.779c-2.451,0-3.267-3.792-3.442-4.784
		c-0.175-0.992-0.483-2.376-2.839-2.469c-0.449-0.018-0.853,0.015-1.249,0.096C100.358,5.221,100.709,5.521,100.802,5.695z"/>
	<path fill="#24AE5F" stroke="#2B2927" stroke-width="0.3818" stroke-linecap="round" stroke-linejoin="round" d="M99.36,6.063
		c-0.619,0.262-1.431,0.726-2.19,1.382c0,0,2.008-0.308,2.514,1.715c0,0-1.638-1.374-3.803-0.41l-0.656-0.215l0.315-0.271
		c0.778-0.616,0.852-1.624,0.815-1.934c-0.064-0.562-0.629-1.249-1.52-1.334c-0.728-0.07-1.484,0.458-1.57,1.27
		c-0.086,0.821,0.325,1.405,0.948,1.57c0,0-0.841-1.197-0.035-1.759c0.535-0.373,1.118-0.292,1.523,0.405
		c0,0,0.632,1.313-0.478,2.054c0,0,4.632,0.798,2.449,7.454c0,0,0.389-4.818-2.644-6.442c-2.562-1.372-2.839-2.801-2.761-3.89
		c0,0-3.065,3.05-5.788-1.66c0,0,1.85,0.902,3.366,0.902s2.687-0.932,4.784-0.817c2.654,0.146,2.304,3.005,2.304,3.005
		s0.82-0.836,2.013-1.412C98.95,5.674,99.304,5.95,99.36,6.063z"/>
	<path fill="#24AE5F" stroke="#2B2927" stroke-width="0.3818" stroke-linecap="round" stroke-linejoin="round" d="M94.715,9.366
		c-0.859,0.287-1.55,0.15-2.14,0.032c-0.523-0.104-1.789-1.096-2.654-2.766c0.335-0.005,0.677-0.076,0.677-0.076
		c0.588,1.211,1.535,2.367,2.993,2.367c0.103,0,0.282-0.037,0.378-0.044L94.715,9.366z"/>
	<path fill="#24AE5F" stroke="#2B2927" stroke-width="0.3818" stroke-linecap="round" stroke-linejoin="round" d="M89.272,4.854
		c-0.083-0.35-0.162-1-0.197-1.384h0.648c0,0,0.08,0.761,0.264,1.427C89.988,4.898,89.607,4.908,89.272,4.854z"/>
	<path fill="#24AE5F" stroke="#2B2927" stroke-width="0.3818" stroke-linecap="round" stroke-linejoin="round" d="M100.794,34.592
		c0.416,0.054,0.697,0.03,0.697,0.03s2.507-0.022,2.219-1.959c0,0-0.101-1.131-1.03-1.131c-0.929,0-1.059,1.232-1.059,1.232
		s0.638,0.046,0.843,0.432c0.367,0.691-0.271,1.023-0.271,1.023c-0.817,0.233-0.934-0.739-0.934-0.739
		c-0.671,3.209-4.802,2.092-4.802,2.092c4.123-0.35,3.266-3.775,5.596-4.451c1.71-0.496,1.977,0.696,1.977,0.696
		c0.496-2.858,1.604-4.34,2.859-4.842c1.733-0.694,1.927-3.135,1.927-3.135c1.081,2.744-1.21,3.479-1.21,3.479
		s1.57-0.416,2.17,1.407c0.833,2.525-1.198,3.282-2.538,3.705c-1.35,0.426-1.967,1.457-1.967,1.457
		c-0.259-2.788,1.85-2.799,1.85-2.799c-0.51-0.226-0.618-0.875-0.467-1.4c0.169-0.588,1.21-1.333,1.901-0.36
		c0.702,0.987-0.18,1.76-0.18,1.76s0.98-0.313,0.992-1.4c0.008-0.729-0.583-1.779-1.488-1.779c-2.45,0-3.267,3.792-3.442,4.784
		c-0.175,0.992-0.483,2.376-2.839,2.47c-0.45,0.018-0.853-0.015-1.25-0.096C100.351,35.067,100.701,34.767,100.794,34.592z"/>
	<path fill="#24AE5F" stroke="#2B2927" stroke-width="0.3818" stroke-linecap="round" stroke-linejoin="round" d="M99.353,34.224
		c-0.618-0.262-1.431-0.727-2.189-1.382c0,0,2.008,0.308,2.514-1.715c0,0-1.638,1.375-3.803,0.411l-0.656,0.215l0.315,0.271
		c0.778,0.616,0.852,1.624,0.816,1.934c-0.065,0.562-0.63,1.249-1.521,1.334c-0.727,0.07-1.484-0.458-1.569-1.27
		c-0.086-0.821,0.324-1.405,0.947-1.57c0,0-0.84,1.197-0.035,1.759c0.535,0.373,1.118,0.292,1.523-0.405
		c0,0,0.632-1.313-0.478-2.054c0,0,4.632-0.798,2.449-7.454c0,0,0.389,4.818-2.644,6.442c-2.561,1.372-2.839,2.8-2.761,3.89
		c0,0-3.065-3.05-5.788,1.66c0,0,1.85-0.902,3.367-0.902c1.517,0,2.687,0.932,4.784,0.816c2.655-0.146,2.305-3.004,2.305-3.004
		s0.82,0.836,2.013,1.411C98.942,34.613,99.296,34.337,99.353,34.224z"/>
	<path fill="#24AE5F" stroke="#2B2927" stroke-width="0.3818" stroke-linecap="round" stroke-linejoin="round" d="M94.707,30.922
		c-0.859-0.287-1.55-0.15-2.139-0.032c-0.523,0.104-1.789,1.096-2.654,2.766c0.335,0.005,0.677,0.076,0.677,0.076
		c0.589-1.211,1.535-2.367,2.994-2.367c0.103,0,0.282,0.037,0.377,0.044L94.707,30.922z"/>
	<path fill="#24AE5F" stroke="#2B2927" stroke-width="0.3818" stroke-linecap="round" stroke-linejoin="round" d="M89.265,35.433
		c-0.083,0.35-0.162,1.1-0.197,1.483h0.648c0,0,0.08-0.86,0.265-1.527C89.98,35.389,89.6,35.379,89.265,35.433z"/>
	<path fill="#24AE5F" stroke="#2B2927" stroke-width="0.2291" stroke-linecap="round" stroke-linejoin="round" d="M114.029,20.348
		c0.648,0.169,0.989,0.158,1.951,1.23c0.532,0.592,1.756,0.852,2.614-0.199c1.149-1.407,1.845-0.963,1.845-0.963
		c-1.398,1.085-0.928,2.1-2.314,2.97c-1.705,1.069-2.552-1.255-2.552-1.255c0.282,0.612,0.361,1.512-0.396,2.132
		c-0.754,0.618-1.701-0.315-1.549-1.352c0.178-1.216,1.053-1.195,1.053-1.195c-0.172,0.412-0.258,0.569-0.149,0.902
		c0.108,0.333,0.683,0.338,0.443-0.51c-0.416-1.472-2.476-1.52-2.476-1.52s-0.265-0.23,0.014-0.491c0,0,2.223-0.101,2.412-1.555
		c0.116-0.893-0.358-0.825-0.457-0.487c-0.099,0.338-0.009,0.491,0.175,0.894c0,0-0.873,0.065-1.086-1.141
		c-0.182-1.028,0.738-2.009,1.509-1.43c0.774,0.582,0.721,1.485,0.456,2.111c0,0,0.781-2.365,2.515-1.384
		c1.41,0.799,0.967,1.632,2.394,2.646c0,0-0.68,0.683-1.868-0.665c-0.887-1.007-2.103-0.686-2.617-0.066
		C115.013,20.14,114.672,20.146,114.029,20.348"/>
	<path fill="#24AE5F" stroke="#2B2927" stroke-width="0.2291" stroke-linecap="round" stroke-linejoin="round" d="M119.82,20.201
		c-1.319,0.477-1.368,1.354-2.221,1.366c-0.673,0.01-1.234-0.929-1.234-0.929c-0.625,0.211-1.453-0.075-1.453-0.075
		s-0.353-0.191-0.011-0.433c0,0,0.823-0.369,1.454-0.189c0,0,0.534-0.967,1.207-0.992C118.415,18.917,118.489,19.791,119.82,20.201z
		"/>
	<path fill="#24AE5F" stroke="#2B2927" stroke-width="0.2291" stroke-linecap="round" stroke-linejoin="round" d="M115.944,17.294
		c0,0,1.286-1.025,0.194-2.706c-0.6-0.924-0.421-1.248-0.421-1.248s-1,0.851-0.292,1.913c0.648,0.972,0.373,1.912,0.373,1.912
		S115.718,17.505,115.944,17.294z"/>
	<path fill="#24AE5F" stroke="#2B2927" stroke-width="0.2291" stroke-linecap="round" stroke-linejoin="round" d="M115.944,23.031
		c0,0,1.286,1.025,0.194,2.707c-0.6,0.924-0.421,1.248-0.421,1.248s-1-0.851-0.292-1.912c0.648-0.973,0.373-1.913,0.373-1.913
		S115.718,22.82,115.944,23.031z"/>
	<path fill="#22313F" stroke="#FFFFFF" stroke-width="0.1779" stroke-linecap="round" stroke-linejoin="round" d="M23.158,20.1
		c-1.291-0.271-1.884-1.162-2.738-1.472s-1.083,0.54-0.603,0.84c0.48,0.299,0.404,0.423,0.404,0.423s-0.189,0.153-0.753-0.225
		c-0.452-0.302-0.962-0.127-1.023,0.442c0.046,0.571,0.549,0.759,1.009,0.468c0.574-0.363,0.759-0.205,0.759-0.205
		s0.074,0.126-0.415,0.413c-0.488,0.287-0.281,1.144,0.581,0.855c0.861-0.289,1.474-1.16,2.771-1.398
		C23.149,20.241,23.258,20.189,23.158,20.1z"/>
	<path fill="#22313F" stroke="#FFFFFF" stroke-width="0.1779" stroke-linecap="round" stroke-linejoin="round" d="M22.944,19.902
		c0,0-1.256-0.871-1.497-2.937c-0.079-0.678,0.216-1.095,0.551-1.079c0.176,0.009,0.235,0.209,0.251,0.391
		c0.016,0.178,0.242,0.27,0.299-0.011c0.058-0.281,0.233-0.276,0.368-0.262c0.116,0.012,0.416,0.274,0.127,0.863
		c-0.246,0.503-0.29,2.222,0.049,2.764S22.944,19.902,22.944,19.902z"/>
	<path fill="#22313F" stroke="#FFFFFF" stroke-width="0.1779" stroke-linecap="round" stroke-linejoin="round" d="M22.926,20.437
		c0,0-1.239,0.702-1.563,2.781c-0.105,0.674,0.177,1.102,0.513,1.097c0.176-0.003,0.242-0.201,0.264-0.382
		c0.022-0.177,0.25-0.261,0.299,0.022c0.048,0.282,0.223,0.284,0.358,0.275c0.117-0.008,0.425-0.26,0.157-0.859
		c-0.229-0.512-0.248-2.129,0.11-2.659C23.423,20.181,22.926,20.437,22.926,20.437z"/>
	<path fill="#22313F" stroke="#FFFFFF" stroke-width="0.1779" stroke-linecap="round" stroke-linejoin="round" d="M24.954,20.146
		c-0.073-0.09-0.18-0.351-0.729-0.338c-0.755,0.018-0.565-0.379-0.794-0.348c-0.224,0.031-0.149,0.485-0.083,0.675
		c-0.077,0.166-0.164,0.638,0.063,0.678c0.228,0.04,0.052-0.351,0.805-0.306c0.548,0.032,0.686-0.166,0.741-0.268
		C24.958,20.239,25.01,20.214,24.954,20.146z"/>
	<path fill="#22313F" stroke="#FFFFFF" stroke-width="0.1408" stroke-linecap="round" stroke-linejoin="round" d="M4.08,12.016
		c0,0,1.966-0.744,1.966-2.09c0-1.134-0.496-1.435-0.496-1.435s0.444,0.45,1.133,0.407c0.85-0.053,0.913-1.012,0.903-1.417
		C7.569,6.773,7.09,5.799,5.656,5.551c0,0,1.027,0.549,1.027,1.311c0,0.761-0.531,0.85-0.797,0.85c-0.602,0-1.151-0.549-1.151-1.24
		s0.248-1.417,1.612-2.108c0,0-2.32,0.036-2.32,2.232c0,1.523,0.797,1.594,0.797,3.631C4.823,10.936,4.08,12.016,4.08,12.016z"/>
	<path fill="#22313F" stroke="#FFFFFF" stroke-width="0.1408" stroke-linecap="round" stroke-linejoin="round" d="M3.982,28.643
		c0,0,1.966,0.744,1.966,2.09c0,1.134-0.496,1.435-0.496,1.435s0.444-0.451,1.133-0.408c0.851,0.053,0.914,1.013,0.903,1.417
		c-0.018,0.708-0.496,1.683-1.93,1.931c0,0,1.027-0.549,1.027-1.311c0-0.762-0.531-0.851-0.797-0.851
		c-0.602,0-1.151,0.55-1.151,1.24c0,0.691,0.248,1.417,1.611,2.108c0,0-2.32-0.036-2.32-2.232c0-1.523,0.797-1.594,0.797-3.631
		C4.726,29.724,3.982,28.643,3.982,28.643z"/>
	<path fill="#D2CECB" stroke="#FFFFFF" stroke-width="0.4582" stroke-linecap="round" stroke-linejoin="round" d="M74.832,36.928
		c13.441-3.021,23.7-13.979,25.899-27.53c2.378,1.47,4.309,3.63,5.478,6.185c0.861,0.825,1.68,1.693,2.452,2.599l-1.004,1.355
		c-0.848-1.02-1.756-1.991-2.722-2.907c-0.718-1.677-1.793-3.174-3.119-4.398c-2.712,11.377-10.875,20.53-21.568,24.697H74.832z"/>
	<path fill="#D2CECB" stroke="#FFFFFF" stroke-width="0.4582" stroke-linecap="round" stroke-linejoin="round" d="M114.429,2.678
		h-8.727c0,0-3.997-1.442-5.359-1.604h14.207L114.429,2.678z"/>
	<path fill="#D2CECB" stroke="#FFFFFF" stroke-width="0.4582" stroke-linecap="round" stroke-linejoin="round" d="M114.697,12.194
		c-1.876,4.805-4.783,9.132-8.487,12.683c-1.169,2.555-3.1,4.714-5.478,6.185c-0.464-2.857-1.286-5.599-2.42-8.175l0.989-1.751
		c1.077,2.241,1.926,4.615,2.517,7.092c1.326-1.224,2.4-2.721,3.119-4.398c3.737-3.549,6.624-7.919,8.423-12.758L114.697,12.194z"/>
	<path fill="#D2CECB" stroke="#FFFFFF" stroke-width="0.4582" stroke-linecap="round" stroke-linejoin="round" d="M80.746,2.688
		h11.643c12.438,0,23.174,6.628,29.051,16.43v-3.029C115.022,6.98,104.4,1.073,92.399,1.073H75.365
		C75.365,1.073,78.066,1.607,80.746,2.688z"/>
	<path fill="#D2CECB" stroke="#FFFFFF" stroke-width="0.4582" stroke-linecap="round" stroke-linejoin="round" d="M116.955,37.78
		h5.328V24.729c0.259-0.281,1.604-2.637,1.604-2.637l0,17.289l-8.462-0.001c-0.323-6.17-2.319-12.015-5.632-16.981l1.045-1.389
		C114.22,25.896,116.377,31.642,116.955,37.78z"/>
	<path fill="#D2CECB" stroke="#FFFFFF" stroke-width="0.4582" stroke-linecap="round" stroke-linejoin="round" d="M122.279,2.672
		l0.014,17.213c-1.719,3.232-3.948,6.154-6.586,8.655l0.573,1.7c3.087-2.796,5.676-6.134,7.618-9.873l-0.012-19.294h-8.457
		c-0.115,2.192-0.442,4.349-0.964,6.435l1.391,1.19c0.535-1.951,0.906-3.965,1.099-6.022L122.279,2.672z"/>
	<path fill="#D2CECB" stroke="#FFFFFF" stroke-width="0.4582" stroke-linecap="round" stroke-linejoin="round" d="M50.127,3.542
		c-13.441,3.02-23.7,13.967-25.899,27.518c-2.378-1.47-4.309-3.63-5.478-6.184c-0.861-0.826-1.68-1.693-2.452-2.599l1.004-1.355
		c0.848,1.02,1.756,1.991,2.722,2.907c0.718,1.677,1.793,3.175,3.119,4.398C25.854,16.849,34.018,7.708,44.71,3.542H50.127z"/>
	<path fill="#D2CECB" stroke="#FFFFFF" stroke-width="0.4582" stroke-linecap="round" stroke-linejoin="round" d="M10.53,37.78
		h8.727c0,0,3.998,1.442,5.358,1.605H10.409L10.53,37.78z"/>
	<path fill="#D2CECB" stroke="#FFFFFF" stroke-width="0.4582" stroke-linecap="round" stroke-linejoin="round" d="M10.262,28.264
		c1.877-4.805,4.783-9.131,8.487-12.683c1.169-2.554,3.1-4.714,5.478-6.184c0.464,2.857,1.286,5.599,2.42,8.175l-0.989,1.75
		c-1.077-2.241-1.926-4.614-2.517-7.092c-1.326,1.223-2.4,2.721-3.119,4.397c-3.737,3.549-6.624,7.919-8.423,12.759L10.262,28.264z"
		/>
	<path fill="#D2CECB" stroke="#FFFFFF" stroke-width="0.4582" stroke-linecap="round" stroke-linejoin="round" d="M44.213,37.77
		H32.57c-12.438,0-23.174-6.629-29.051-16.43v3.029c6.418,9.108,17.04,15.016,29.041,15.016h17.034
		C49.594,39.385,46.893,38.851,44.213,37.77z"/>
	<path fill="#D2CECB" stroke="#FFFFFF" stroke-width="0.4582" stroke-linecap="round" stroke-linejoin="round" d="M57.665,37.764
		c-12.519,0-23.316-6.706-29.175-16.607l-0.838,1.757c6.288,9.925,17.355,16.471,29.98,16.471l34.767,0.021
		c7.868,0,15.138-2.528,21.021-6.834l-0.491-1.685c-5.666,4.305-12.781,6.9-20.539,6.9L57.665,37.764z"/>
	<path fill="#D2CECB" stroke="#FFFFFF" stroke-width="0.4582" stroke-linecap="round" stroke-linejoin="round" d="M10.43,1.076
		l14.045-0.001c-1.686,0.276-5.38,1.604-5.38,1.604H10.56L10.43,1.076z"/>
	<path fill="#D2CECB" stroke="#FFFFFF" stroke-width="0.4582" stroke-linecap="round" stroke-linejoin="round" d="M8.004,2.678
		H2.677v13.051c-0.259,0.281-1.604,2.636-1.604,2.636l0-17.289l8.462,0.001c0.323,6.17,2.319,12.016,5.632,16.981l-1.045,1.389
		C10.739,14.561,8.582,8.816,8.004,2.678z"/>
	<path fill="#D2CECB" stroke="#FFFFFF" stroke-width="0.4582" stroke-linecap="round" stroke-linejoin="round" d="M32.568,2.671
		c-7.758,0-14.874,2.595-20.539,6.9l-0.491-1.685C17.422,3.58,24.692,1.052,32.56,1.052l34.767,0.021
		c12.625,0,23.693,6.545,29.98,16.47l-0.838,1.758C90.61,9.4,79.813,2.694,67.294,2.694L32.568,2.671z"/>
	<path fill="#D2CECB" stroke="#FFFFFF" stroke-width="0.4582" stroke-linecap="round" stroke-linejoin="round" d="M2.68,37.786
		L2.667,20.572c1.719-3.232,3.948-6.154,6.586-8.655L8.68,10.217c-3.087,2.797-5.676,6.135-7.619,9.874l0.012,19.294H9.53
		c0.115-2.192,0.442-4.349,0.964-6.435l-1.391-1.19c-0.536,1.952-0.907,3.965-1.1,6.022L2.68,37.786z"/>
	<path fill="#24AE5F" stroke="#2B2927" stroke-width="0.3818" stroke-linecap="round" stroke-linejoin="round" d="M24.157,34.763
		c-0.417,0.054-0.698,0.029-0.698,0.029s-2.506-0.021-2.218-1.958c0,0,0.101-1.131,1.03-1.131s1.059,1.231,1.059,1.231
		s-0.637,0.046-0.842,0.433c-0.368,0.691,0.271,1.023,0.271,1.023c0.817,0.233,0.934-0.739,0.934-0.739
		c0.671,3.208,4.802,2.093,4.802,2.093c-4.123-0.35-3.266-3.775-5.596-4.452c-1.71-0.496-1.978,0.696-1.978,0.696
		c-0.496-2.859-1.604-4.34-2.859-4.842c-1.732-0.694-1.927-3.136-1.927-3.136c-1.08,2.744,1.21,3.479,1.21,3.479
		s-1.569-0.416-2.17,1.407c-0.833,2.526,1.198,3.282,2.538,3.705c1.349,0.426,1.966,1.457,1.966,1.457
		c0.259-2.787-1.85-2.799-1.85-2.799c0.51-0.226,0.618-0.874,0.466-1.4c-0.168-0.588-1.21-1.333-1.901-0.36
		c-0.702,0.987,0.181,1.76,0.181,1.76s-0.98-0.312-0.992-1.4c-0.008-0.729,0.583-1.78,1.487-1.78c2.451,0,3.268,3.792,3.442,4.784
		c0.175,0.992,0.483,2.376,2.839,2.47c0.45,0.018,0.854-0.015,1.25-0.096C24.601,35.237,24.25,34.937,24.157,34.763z"/>
	<path fill="#24AE5F" stroke="#2B2927" stroke-width="0.3818" stroke-linecap="round" stroke-linejoin="round" d="M25.599,34.395
		c0.619-0.262,1.431-0.726,2.19-1.382c0,0-2.008,0.307-2.514-1.715c0,0,1.638,1.374,3.803,0.41l0.656,0.215l-0.315,0.271
		c-0.778,0.616-0.852,1.624-0.815,1.934c0.064,0.562,0.629,1.249,1.52,1.334c0.728,0.07,1.484-0.458,1.57-1.27
		c0.086-0.821-0.324-1.404-0.948-1.569c0,0,0.841,1.197,0.035,1.758c-0.535,0.373-1.118,0.292-1.523-0.405
		c0,0-0.632-1.313,0.478-2.054c0,0-4.632-0.799-2.449-7.454c0,0-0.389,4.818,2.644,6.442c2.562,1.372,2.839,2.8,2.761,3.889
		c0,0,3.065-3.05,5.788,1.661c0,0-1.85-0.902-3.367-0.902c-1.517,0-2.687,0.932-4.784,0.817c-2.654-0.146-2.304-3.005-2.304-3.005
		s-0.82,0.836-2.013,1.411C26.009,34.783,25.655,34.508,25.599,34.395z"/>
	<path fill="#24AE5F" stroke="#2B2927" stroke-width="0.3818" stroke-linecap="round" stroke-linejoin="round" d="M30.244,31.092
		c0.859-0.287,1.55-0.15,2.139-0.032c0.523,0.104,1.789,1.096,2.654,2.766c-0.335,0.005-0.677,0.076-0.677,0.076
		c-0.588-1.211-1.536-2.367-2.994-2.367c-0.102,0-0.282,0.037-0.377,0.044L30.244,31.092z"/>
	<path fill="#24AE5F" stroke="#2B2927" stroke-width="0.3818" stroke-linecap="round" stroke-linejoin="round" d="M35.688,35.604
		c0.082,0.35,0.162,1,0.196,1.384h-0.648c0,0-0.08-0.761-0.264-1.428C34.971,35.56,35.352,35.55,35.688,35.604z"/>
	<path fill="#24AE5F" stroke="#2B2927" stroke-width="0.3818" stroke-linecap="round" stroke-linejoin="round" d="M24.165,5.865
		c-0.416-0.054-0.697-0.03-0.697-0.03s-2.507,0.022-2.219,1.958c0,0,0.101,1.131,1.03,1.131c0.929,0,1.059-1.231,1.059-1.231
		S22.7,7.648,22.495,7.262c-0.367-0.691,0.271-1.023,0.271-1.023c0.817-0.234,0.934,0.739,0.934,0.739
		c0.671-3.209,4.802-2.092,4.802-2.092c-4.123,0.35-3.266,3.775-5.596,4.451c-1.71,0.497-1.977-0.696-1.977-0.696
		c-0.496,2.859-1.604,4.34-2.859,4.842c-1.733,0.694-1.927,3.136-1.927,3.136c-1.081-2.744,1.21-3.479,1.21-3.479
		s-1.57,0.416-2.17-1.407c-0.833-2.525,1.198-3.282,2.538-3.705c1.349-0.426,1.966-1.457,1.966-1.457
		c0.259,2.788-1.85,2.799-1.85,2.799c0.51,0.226,0.618,0.874,0.467,1.4c-0.169,0.587-1.21,1.333-1.901,0.36
		c-0.702-0.987,0.18-1.76,0.18-1.76s-0.98,0.313-0.992,1.4c-0.008,0.729,0.583,1.779,1.488,1.779c2.45,0,3.267-3.792,3.442-4.784
		c0.175-0.992,0.483-2.376,2.839-2.47c0.449-0.018,0.853,0.015,1.25,0.096C24.608,5.391,24.258,5.691,24.165,5.865z"/>
	<path fill="#24AE5F" stroke="#2B2927" stroke-width="0.3818" stroke-linecap="round" stroke-linejoin="round" d="M25.606,6.234
		c0.618,0.262,1.431,0.726,2.189,1.382c0,0-2.008-0.308-2.514,1.715c0,0,1.638-1.375,3.803-0.411l0.656-0.215l-0.315-0.271
		C28.647,7.818,28.574,6.81,28.609,6.5c0.065-0.562,0.63-1.249,1.521-1.335c0.727-0.069,1.484,0.458,1.569,1.27
		c0.086,0.821-0.324,1.404-0.947,1.569c0,0,0.84-1.197,0.035-1.758c-0.535-0.373-1.118-0.292-1.523,0.405
		c0,0-0.632,1.313,0.478,2.054c0,0-4.632,0.799-2.449,7.454c0,0-0.389-4.818,2.644-6.442c2.562-1.372,2.839-2.8,2.762-3.89
		c0,0,3.065,3.05,5.788-1.66c0,0-1.85,0.901-3.367,0.901c-1.517,0-2.687-0.932-4.784-0.816c-2.655,0.146-2.305,3.004-2.305,3.004
		s-0.82-0.836-2.013-1.411C26.017,5.845,25.663,6.121,25.606,6.234z"/>
	<path fill="#24AE5F" stroke="#2B2927" stroke-width="0.3818" stroke-linecap="round" stroke-linejoin="round" d="M30.252,9.536
		c0.859,0.287,1.55,0.15,2.139,0.032c0.523-0.104,1.789-1.096,2.654-2.766c-0.335-0.005-0.677-0.076-0.677-0.076
		c-0.589,1.211-1.535,2.367-2.994,2.367c-0.103,0-0.282-0.038-0.377-0.044L30.252,9.536z"/>
	<path fill="#24AE5F" stroke="#2B2927" stroke-width="0.3818" stroke-linecap="round" stroke-linejoin="round" d="M35.694,5.024
		c0.083-0.349,0.162-1.099,0.197-1.483h-0.648c0,0-0.08,0.86-0.265,1.527C34.979,5.068,35.359,5.079,35.694,5.024z"/>
	<path fill="#24AE5F" stroke="#2B2927" stroke-width="0.3818" stroke-linecap="round" stroke-linejoin="round" d="M10.93,20.11
		c-0.648-0.169-0.989-0.158-1.951-1.23c-0.532-0.592-1.756-0.852-2.614,0.199c-1.149,1.408-1.845,0.964-1.845,0.964
		c1.397-1.085,0.928-2.101,2.314-2.97c1.705-1.069,2.552,1.255,2.552,1.255c-0.282-0.613-0.361-1.512,0.396-2.132
		c0.754-0.619,1.701,0.315,1.549,1.352c-0.178,1.216-1.053,1.195-1.053,1.195c0.172-0.412,0.257-0.569,0.149-0.902
		c-0.108-0.333-0.683-0.338-0.443,0.51c0.417,1.472,2.476,1.521,2.476,1.521s0.265,0.23-0.014,0.49c0,0-2.223,0.101-2.412,1.556
		c-0.116,0.893,0.358,0.825,0.457,0.487s0.009-0.491-0.175-0.894c0,0,0.873-0.065,1.086,1.141c0.182,1.028-0.738,2.009-1.509,1.429
		c-0.774-0.582-0.721-1.484-0.456-2.111c0,0-0.781,2.366-2.515,1.384c-1.41-0.798-0.967-1.632-2.394-2.646
		c0,0,0.68-0.683,1.868,0.665c0.887,1.007,2.103,0.686,2.617,0.067C9.946,20.318,10.287,20.312,10.93,20.11"/>
	<path fill="#24AE5F" stroke="#2B2927" stroke-width="0.3818" stroke-linecap="round" stroke-linejoin="round" d="M5.139,20.257
		c1.319-0.477,1.368-1.354,2.221-1.366c0.673-0.009,1.234,0.93,1.234,0.93c0.625-0.211,1.453,0.075,1.453,0.075
		s0.353,0.191,0.011,0.433c0,0-0.823,0.37-1.455,0.19c0,0-0.533,0.967-1.207,0.991C6.544,21.541,6.47,20.667,5.139,20.257z"/>
	<path fill="#24AE5F" stroke="#2B2927" stroke-width="0.3818" stroke-linecap="round" stroke-linejoin="round" d="M9.015,23.164
		c0,0-1.286,1.025-0.194,2.707c0.6,0.924,0.421,1.248,0.421,1.248s1-0.851,0.292-1.913c-0.648-0.972-0.373-1.912-0.373-1.912
		S9.241,22.953,9.015,23.164z"/>
	<path fill="#24AE5F" stroke="#2B2927" stroke-width="0.3818" stroke-linecap="round" stroke-linejoin="round" d="M9.015,17.427
		c0,0-1.286-1.025-0.194-2.707c0.6-0.924,0.421-1.248,0.421-1.248s1,0.851,0.292,1.912c-0.648,0.973-0.373,1.912-0.373,1.912
		S9.241,17.638,9.015,17.427z"/>
</g>
</svg>
