<?xml version="1.0" encoding="utf-8"?>
<!-- Generator: Adobe Illustrator 16.0.0, SVG Export Plug-In . SVG Version: 6.00 Build 0)  -->
<!DOCTYPE svg PUBLIC "-//W3C//DTD SVG 1.1//EN" "http://www.w3.org/Graphics/SVG/1.1/DTD/svg11.dtd">
<svg version="1.1" id="Layer_1" xmlns="http://www.w3.org/2000/svg" xmlns:xlink="http://www.w3.org/1999/xlink" x="0px" y="0px"
	 width="40.458px" height="124.959px" viewBox="0 0 40.458 124.959" enable-background="new 0 0 40.458 124.959"
	 xml:space="preserve">
<g>
	<polygon fill="#24AE5F" points="1.865,8.702 9.644,10.539 18.07,1.788 1.756,1.896 	"/>
	<polygon fill="#24AE5F" points="38.543,8.702 30.765,10.539 22.338,1.788 38.651,1.896 	"/>
	<path fill="#22313F" d="M9.644,10.539c0,0,6.698,1.621,10.479,5.186l-4.214,3.781c0,0-4.213,2.377-5.078,3.998
		c0,0,7.131,1.729,9.075,3.565c0,0-13.396,7.346-18.258,23.66V31.606C1.648,31.606,2.297,19.614,9.644,10.539z"/>
	<path fill="#22313F" d="M30.765,10.539c0,0-6.698,1.621-10.479,5.186l4.213,3.781c0,0,4.213,2.377,5.078,3.998
		c0,0-7.13,1.729-9.075,3.565c0,0,13.397,7.346,18.258,23.66V31.606C38.759,31.606,38.111,19.614,30.765,10.539z"/>
	<path fill="#22313F" d="M19.691,15.4c0,0,7.455-4.754,10.372-4.862c0,0-2.593-4.97-10.372-8.751c0,0-8.427,5.834-10.047,8.751
		C9.644,10.539,16.125,12.268,19.691,15.4z"/>
	<polygon fill="#24AE5F" points="1.865,116.308 9.644,114.471 18.07,123.222 1.756,123.114 	"/>
	<polygon fill="#24AE5F" points="38.543,116.308 30.765,114.471 22.338,123.222 38.651,123.114 	"/>
	<path fill="#22313F" d="M9.644,114.471c0,0,6.698-1.621,10.479-5.186l-4.214-3.781c0,0-4.213-2.376-5.078-3.997
		c0,0,7.131-1.729,9.075-3.565c0,0-13.396-7.347-18.258-23.66v19.123C1.648,93.404,2.297,105.396,9.644,114.471z"/>
	<path fill="#22313F" d="M30.765,114.471c0,0-6.698-1.621-10.479-5.186l4.213-3.781c0,0,4.213-2.376,5.078-3.997
		c0,0-7.13-1.729-9.075-3.565c0,0,13.397-7.347,18.258-23.66v19.123C38.759,93.404,38.111,105.396,30.765,114.471z"/>
	<path fill="#22313F" d="M19.691,109.609c0,0,7.455,4.754,10.372,4.862c0,0-2.593,4.97-10.372,8.751c0,0-8.427-5.834-10.047-8.751
		C9.644,114.471,16.125,112.743,19.691,109.609z"/>
	<path fill="#22313F" stroke="#FFFFFF" stroke-width="0.4582" stroke-linecap="round" stroke-linejoin="round" d="M36.928,42.339
		c-4.423-9.686-12.933-16.781-23.185-19.617c1.028-0.893,2.205-1.621,3.493-2.126c0.941-0.984,1.94-1.905,2.991-2.76l-2.839-2.079
		c-0.916,0.786-1.793,1.621-2.629,2.502c-2.889,1.448-5.234,3.788-6.687,6.677c15.378,2.028,28.084,14.558,28.856,31.109V42.339z"/>
	<path fill="#22313F" stroke="#FFFFFF" stroke-width="0.4582" stroke-linecap="round" stroke-linejoin="round" d="M0.23,10.37
		v20.264c0,0,0.503-7.779,3.291-13.418v-6.569C3.521,10.646,3.118,10.531,0.23,10.37z"/>
	<path fill="#22313F" stroke="#FFFFFF" stroke-width="0.4582" stroke-linecap="round" stroke-linejoin="round" d="M12.863,9.618
		c4.851,1.911,9.239,4.845,12.837,8.641c2.889,1.448,5.234,3.788,6.687,6.677c-2.973,0.392-5.867,1.163-8.571,2.292
		c-0.68-0.519-3.593-2.033-3.593-2.033c2.064-1.019,4.236-1.849,6.493-2.474c-1.028-0.893-2.205-1.621-3.493-2.126
		c-3.561-3.721-7.946-6.545-12.772-8.277C10.451,12.318,12.427,9.908,12.863,9.618z"/>
	<path fill="#22313F" stroke="#FFFFFF" stroke-width="0.4582" stroke-linecap="round" stroke-linejoin="round" d="M3.52,42.28
		l0-9.704c0-12.612,6.87-23.114,16.723-28.689l-0.634-0.367h-4.995C5.931,9.974,0.23,20.289,0.23,32.554v23.198
		C0.23,55.752,0.593,48.135,3.52,42.28z"/>
	<path fill="#22313F" stroke="#FFFFFF" stroke-width="0.4582" stroke-linecap="round" stroke-linejoin="round" d="M40.229,10.396
		v20.544c-0.33-8.022-3.313-13.791-3.313-13.791v-6.504C36.917,10.646,40.037,10.329,40.229,10.396z"/>
	<path fill="#22313F" stroke="#FFFFFF" stroke-width="0.4582" stroke-linecap="round" stroke-linejoin="round" d="M36.917,7.308
		V3.519h-11c0,0-3.371-2.448-5.358-3.29h19.67v10.155c-6.175,0.207-12.113,2.092-17.159,5.377c-0.615-0.654-2.854-2.194-2.854-2.194
		C25.103,10.162,30.835,8.001,36.917,7.308z"/>
	<path fill="#22313F" stroke="#FFFFFF" stroke-width="0.4582" stroke-linecap="round" stroke-linejoin="round" d="M3.515,3.519
		h16.093c3.003,1.607,5.714,3.64,8.081,6.068c2.327-0.933,3.546-1.171,3.546-1.171c-3.002-3.374-6.63-6.145-10.691-8.187H0.23V10.37
		c2.286,0.075,4.536,0.381,6.72,0.905c0.308-0.538,2.33-2.858,2.33-2.858C7.41,7.895,5.486,7.519,3.526,7.296L3.515,3.519z"/>
	<path fill="#22313F" stroke="#FFFFFF" stroke-width="0.4582" stroke-linecap="round" stroke-linejoin="round" d="M36.928,32.542
		c0-7.756-2.599-14.739-6.873-20.232c0,0,2.409-0.821,3.479-1.026c4.197,5.858,6.695,13.166,6.695,21.285l-0.001,34.808
		c0,13.182-6.591,24.036-16.388,30.347c0,0-3.318-1.505-3.634-1.762c9.854-5.574,16.722-16.038,16.722-28.65V32.542z"/>
	<path fill="#22313F" stroke="#FFFFFF" stroke-width="0.4582" stroke-linecap="round" stroke-linejoin="round" d="M3.542,82.62
		c4.422,9.686,12.92,16.781,23.173,19.617c-1.028,0.893-2.205,1.621-3.493,2.126c-0.941,0.983-1.94,1.905-2.99,2.76l2.838,2.079
		c0.916-0.786,1.794-1.621,2.629-2.501c2.889-1.449,5.234-3.789,6.687-6.678C17.008,97.995,4.313,85.465,3.542,68.914V82.62z"/>
	<path fill="#22313F" stroke="#FFFFFF" stroke-width="0.4582" stroke-linecap="round" stroke-linejoin="round" d="M40.228,114.589
		V94.326c0,0-0.512,7.779-3.299,13.418v6.569C36.928,114.313,37.34,114.428,40.228,114.589z"/>
	<path fill="#22313F" stroke="#FFFFFF" stroke-width="0.4582" stroke-linecap="round" stroke-linejoin="round" d="M27.595,115.341
		c-4.852-1.911-9.239-4.845-12.837-8.64c-2.889-1.449-5.234-3.789-6.687-6.678c2.972-0.392,5.867-1.163,8.571-2.292
		c0.681,0.519,3.593,2.033,3.593,2.033c-2.064,1.019-4.237,1.849-6.493,2.474c1.028,0.893,2.205,1.621,3.493,2.126
		c3.561,3.721,7.946,6.545,12.773,8.277C30.007,112.641,28.031,115.051,27.595,115.341z"/>
	<path fill="#22313F" stroke="#FFFFFF" stroke-width="0.4582" stroke-linecap="round" stroke-linejoin="round" d="M36.928,82.679
		v9.704c0,12.612-6.859,23.114-16.712,28.689l0.633,0.367h4.995c8.683-6.455,14.383-16.77,14.383-29.035V69.207
		C40.228,69.207,39.855,76.824,36.928,82.679z"/>
	<path fill="#22313F" stroke="#FFFFFF" stroke-width="0.4582" stroke-linecap="round" stroke-linejoin="round" d="M0.229,114.563
		V94.018c0.33,8.022,3.313,13.791,3.313,13.791v6.504C3.542,114.313,0.421,114.63,0.229,114.563z"/>
	<path fill="#22313F" stroke="#FFFFFF" stroke-width="0.4582" stroke-linecap="round" stroke-linejoin="round" d="M3.542,117.651
		v3.789h11c0,0,3.371,2.448,5.358,3.29H0.229v-10.155c6.175-0.207,12.113-2.092,17.159-5.377c0.615,0.654,2.854,2.194,2.854,2.194
		C15.355,114.797,9.623,116.957,3.542,117.651z"/>
	<path fill="#22313F" stroke="#FFFFFF" stroke-width="0.4582" stroke-linecap="round" stroke-linejoin="round" d="M36.938,121.44
		H20.849c-3.003-1.607-5.713-3.64-8.081-6.068c-2.326,0.933-3.546,1.171-3.546,1.171c3.002,3.374,6.63,6.145,10.691,8.187h20.314
		v-10.141c-2.286-0.075-4.536-0.381-6.72-0.905c-0.308,0.538-2.33,2.858-2.33,2.858c1.87,0.521,3.79,0.898,5.75,1.121L36.938,121.44
		z"/>
	<path fill="#22313F" stroke="#FFFFFF" stroke-width="0.4582" stroke-linecap="round" stroke-linejoin="round" d="M3.523,57.648
		c0-12.612,6.875-23.076,16.729-28.65c-0.316-0.257-3.634-1.762-3.634-1.762C6.822,33.547,0.23,44.402,0.23,57.583L0.229,92.391
		c0,8.119,2.498,15.426,6.695,21.285c1.069-0.206,3.479-1.026,3.479-1.026c-4.274-5.493-6.861-12.476-6.861-20.232L3.523,57.648z"/>
	<path fill="#22313F" stroke="#FFFFFF" stroke-width="0.1779" stroke-linecap="round" stroke-linejoin="round" d="M20.358,23.158
		c0.271-1.291,1.162-1.884,1.473-2.738s-0.541-1.083-0.839-0.603c-0.299,0.48-0.424,0.404-0.424,0.404s-0.152-0.189,0.225-0.753
		c0.302-0.452,0.127-0.962-0.442-1.023c-0.571,0.046-0.759,0.549-0.469,1.009c0.363,0.574,0.206,0.759,0.206,0.759
		s-0.126,0.074-0.413-0.415c-0.287-0.488-1.143-0.281-0.855,0.581c0.289,0.861,1.16,1.474,1.398,2.771
		C20.217,23.149,20.268,23.258,20.358,23.158z"/>
	<path fill="#22313F" stroke="#FFFFFF" stroke-width="0.1779" stroke-linecap="round" stroke-linejoin="round" d="M20.556,22.944
		c0,0,0.871-1.256,2.937-1.497c0.678-0.079,1.095,0.216,1.079,0.551c-0.009,0.176-0.209,0.235-0.391,0.251
		c-0.177,0.016-0.27,0.242,0.011,0.299c0.281,0.058,0.276,0.233,0.262,0.368c-0.012,0.116-0.274,0.416-0.864,0.127
		c-0.503-0.246-2.222-0.29-2.764,0.049C20.283,23.432,20.556,22.944,20.556,22.944z"/>
	<path fill="#22313F" stroke="#FFFFFF" stroke-width="0.1779" stroke-linecap="round" stroke-linejoin="round" d="M20.021,22.926
		c0,0-0.702-1.239-2.781-1.563c-0.674-0.105-1.102,0.177-1.097,0.513c0.002,0.176,0.201,0.242,0.382,0.264
		c0.177,0.022,0.261,0.251-0.021,0.299s-0.284,0.223-0.275,0.358c0.008,0.117,0.26,0.425,0.859,0.157
		c0.511-0.229,2.128-0.248,2.659,0.11S20.021,22.926,20.021,22.926z"/>
	<path fill="#22313F" stroke="#FFFFFF" stroke-width="0.1779" stroke-linecap="round" stroke-linejoin="round" d="M20.313,24.954
		c0.09-0.073,0.351-0.18,0.338-0.729c-0.018-0.755,0.379-0.565,0.348-0.794c-0.031-0.224-0.486-0.149-0.675-0.083
		c-0.166-0.077-0.639-0.164-0.678,0.064c-0.04,0.227,0.35,0.052,0.306,0.805c-0.033,0.548,0.166,0.685,0.268,0.741
		C20.219,24.958,20.244,25.01,20.313,24.954z"/>
	<path fill="#22313F" stroke="#FFFFFF" stroke-width="0.1408" stroke-linecap="round" stroke-linejoin="round" d="M28.442,4.079
		c0,0,0.744,1.966,2.09,1.966c1.134,0,1.435-0.496,1.435-0.496s-0.45,0.444-0.407,1.133c0.053,0.85,1.012,0.913,1.417,0.903
		c0.708-0.018,1.683-0.496,1.93-1.931c0,0-0.549,1.027-1.311,1.027c-0.761,0-0.85-0.531-0.85-0.797c0-0.602,0.549-1.151,1.24-1.151
		c0.691,0,1.417,0.248,2.108,1.612c0,0-0.036-2.32-2.232-2.32c-1.523,0-1.594,0.797-3.631,0.797
		C29.522,4.823,28.442,4.079,28.442,4.079z"/>
	<path fill="#22313F" stroke="#FFFFFF" stroke-width="0.1408" stroke-linecap="round" stroke-linejoin="round" d="M11.815,3.982
		c0,0-0.744,1.966-2.09,1.966c-1.133,0-1.435-0.496-1.435-0.496s0.451,0.444,0.408,1.133C8.644,7.436,7.685,7.499,7.28,7.489
		c-0.708-0.018-1.683-0.496-1.93-1.93c0,0,0.549,1.027,1.311,1.027s0.85-0.531,0.85-0.797c0-0.602-0.549-1.151-1.24-1.151
		c-0.691,0-1.417,0.248-2.108,1.611c0,0,0.035-2.32,2.232-2.32c1.523,0,1.594,0.797,3.631,0.797
		C10.734,4.726,11.815,3.982,11.815,3.982z"/>
	<path fill="#D2CECB" stroke="#FFFFFF" stroke-width="0.4582" stroke-linecap="round" stroke-linejoin="round" d="M39.382,10.43
		l0,14.045c-0.275-1.686-1.603-5.38-1.603-5.38V10.56L39.382,10.43z"/>
	<path fill="#24AE5F" stroke="#2B2927" stroke-width="0.3818" stroke-linecap="round" stroke-linejoin="round" d="M5.695,24.157
		c-0.054-0.417-0.03-0.698-0.03-0.698s0.021-2.506,1.958-2.218c0,0,1.131,0.101,1.131,1.03S7.523,23.33,7.523,23.33
		s-0.046-0.637-0.432-0.842C6.4,22.12,6.068,22.758,6.068,22.758c-0.233,0.817,0.739,0.934,0.739,0.934
		c-3.209,0.671-2.093,4.802-2.093,4.802c0.35-4.123,3.775-3.266,4.451-5.596c0.497-1.71-0.696-1.978-0.696-1.978
		c2.859-0.496,4.34-1.604,4.842-2.859c0.694-1.732,3.136-1.927,3.136-1.927c-2.745-1.081-3.479,1.209-3.479,1.209
		s0.415-1.569-1.407-2.17c-2.525-0.833-3.282,1.198-3.705,2.538C7.431,19.061,6.4,19.678,6.4,19.678
		c2.787,0.259,2.799-1.85,2.799-1.85c0.226,0.51,0.875,0.618,1.4,0.466c0.588-0.169,1.332-1.21,0.36-1.901
		c-0.987-0.701-1.761,0.181-1.761,0.181s0.313-0.98,1.4-0.992c0.729-0.008,1.779,0.583,1.779,1.487c0,2.451-3.792,3.267-4.784,3.442
		c-0.992,0.175-2.376,0.483-2.469,2.839c-0.018,0.449,0.015,0.853,0.096,1.249C5.221,24.601,5.521,24.25,5.695,24.157z"/>
	<path fill="#24AE5F" stroke="#2B2927" stroke-width="0.3818" stroke-linecap="round" stroke-linejoin="round" d="M6.063,25.599
		c0.262,0.619,0.726,1.431,1.382,2.19c0,0-0.308-2.008,1.715-2.514c0,0-1.374,1.638-0.41,3.803l-0.215,0.656l-0.271-0.315
		C7.648,28.64,6.64,28.566,6.33,28.603c-0.562,0.064-1.249,0.629-1.334,1.52c-0.07,0.728,0.458,1.484,1.27,1.57
		c0.821,0.086,1.405-0.325,1.57-0.948c0,0-1.197,0.841-1.759,0.035c-0.373-0.535-0.292-1.118,0.405-1.523
		c0,0,1.313-0.632,2.054,0.478c0,0,0.798-4.632,7.454-2.449c0,0-4.818-0.389-6.442,2.644c-1.372,2.562-2.801,2.839-3.89,2.761
		c0,0,3.05,3.065-1.66,5.788c0,0,0.902-1.85,0.902-3.366s-0.932-2.687-0.817-4.784c0.146-2.654,3.005-2.304,3.005-2.304
		s-0.836-0.82-1.412-2.013C5.674,26.009,5.95,25.655,6.063,25.599z"/>
	<path fill="#24AE5F" stroke="#2B2927" stroke-width="0.3818" stroke-linecap="round" stroke-linejoin="round" d="M9.366,30.244
		c0.287,0.859,0.15,1.55,0.032,2.14c-0.104,0.523-1.096,1.789-2.766,2.654c-0.005-0.335-0.076-0.677-0.076-0.677
		c1.211-0.588,2.367-1.535,2.367-2.993c0-0.103-0.037-0.282-0.044-0.378L9.366,30.244z"/>
	<path fill="#24AE5F" stroke="#2B2927" stroke-width="0.3818" stroke-linecap="round" stroke-linejoin="round" d="M4.854,35.687
		c-0.35,0.083-1,0.162-1.384,0.197v-0.648c0,0,0.761-0.08,1.427-0.264C4.898,34.971,4.908,35.352,4.854,35.687z"/>
	<path fill="#24AE5F" stroke="#2B2927" stroke-width="0.3818" stroke-linecap="round" stroke-linejoin="round" d="M34.592,24.165
		c0.054-0.416,0.03-0.697,0.03-0.697s-0.022-2.507-1.959-2.219c0,0-1.131,0.101-1.131,1.03c0,0.929,1.232,1.059,1.232,1.059
		s0.046-0.638,0.432-0.843c0.691-0.367,1.023,0.271,1.023,0.271c0.233,0.817-0.739,0.934-0.739,0.934
		c3.209,0.671,2.092,4.802,2.092,4.802c-0.35-4.123-3.775-3.266-4.451-5.596c-0.496-1.71,0.696-1.977,0.696-1.977
		c-2.858-0.496-4.34-1.604-4.842-2.859c-0.694-1.733-3.135-1.927-3.135-1.927c2.744-1.081,3.479,1.21,3.479,1.21
		s-0.416-1.57,1.407-2.17c2.525-0.833,3.282,1.198,3.705,2.538c0.426,1.35,1.457,1.967,1.457,1.967
		c-2.788,0.259-2.799-1.85-2.799-1.85c-0.226,0.51-0.875,0.618-1.4,0.467c-0.588-0.169-1.333-1.21-0.36-1.901
		c0.987-0.702,1.76,0.18,1.76,0.18s-0.313-0.98-1.4-0.992c-0.729-0.008-1.779,0.583-1.779,1.488c0,2.45,3.792,3.267,4.784,3.442
		c0.992,0.175,2.376,0.483,2.47,2.839c0.018,0.45-0.015,0.853-0.096,1.25C35.067,24.608,34.767,24.258,34.592,24.165z"/>
	<path fill="#24AE5F" stroke="#2B2927" stroke-width="0.3818" stroke-linecap="round" stroke-linejoin="round" d="M34.224,25.606
		c-0.262,0.618-0.727,1.431-1.382,2.189c0,0,0.308-2.008-1.715-2.514c0,0,1.375,1.638,0.411,3.803l0.215,0.656l0.271-0.315
		c0.616-0.778,1.624-0.852,1.934-0.816c0.562,0.065,1.249,0.63,1.334,1.521c0.07,0.727-0.458,1.484-1.27,1.569
		c-0.821,0.086-1.405-0.324-1.57-0.947c0,0,1.197,0.84,1.759,0.035c0.373-0.535,0.292-1.118-0.405-1.523
		c0,0-1.313-0.632-2.054,0.478c0,0-0.798-4.632-7.454-2.449c0,0,4.818-0.389,6.442,2.644c1.372,2.561,2.8,2.839,3.89,2.761
		c0,0-3.05,3.065,1.66,5.788c0,0-0.902-1.85-0.902-3.367c0-1.517,0.932-2.687,0.816-4.784c-0.146-2.655-3.004-2.305-3.004-2.305
		s0.836-0.82,1.411-2.013C34.613,26.017,34.337,25.663,34.224,25.606z"/>
	<path fill="#24AE5F" stroke="#2B2927" stroke-width="0.3818" stroke-linecap="round" stroke-linejoin="round" d="M30.922,30.252
		c-0.287,0.859-0.15,1.55-0.032,2.139c0.104,0.523,1.096,1.789,2.766,2.654c0.005-0.335,0.076-0.677,0.076-0.677
		c-1.211-0.589-2.367-1.535-2.367-2.994c0-0.103,0.037-0.282,0.044-0.377L30.922,30.252z"/>
	<path fill="#24AE5F" stroke="#2B2927" stroke-width="0.3818" stroke-linecap="round" stroke-linejoin="round" d="M35.433,35.694
		c0.35,0.083,1.1,0.162,1.483,0.197v-0.648c0,0-0.86-0.08-1.527-0.265C35.389,34.979,35.379,35.359,35.433,35.694z"/>
	<path fill="#24AE5F" stroke="#2B2927" stroke-width="0.2291" stroke-linecap="round" stroke-linejoin="round" d="M20.348,10.93
		c0.169-0.648,0.158-0.989,1.23-1.951c0.592-0.532,0.852-1.756-0.199-2.614c-1.407-1.149-0.963-1.845-0.963-1.845
		c1.085,1.398,2.1,0.928,2.97,2.314c1.069,1.705-1.255,2.552-1.255,2.552c0.612-0.282,1.512-0.361,2.132,0.396
		c0.618,0.754-0.315,1.701-1.352,1.549c-1.216-0.178-1.195-1.053-1.195-1.053c0.412,0.172,0.569,0.258,0.902,0.149
		c0.333-0.108,0.338-0.683-0.51-0.443c-1.472,0.416-1.52,2.476-1.52,2.476s-0.23,0.265-0.491-0.014c0,0-0.101-2.223-1.555-2.412
		c-0.893-0.116-0.825,0.358-0.487,0.457c0.338,0.099,0.491,0.009,0.894-0.175c0,0,0.065,0.873-1.141,1.086
		c-1.028,0.182-2.009-0.738-1.43-1.509c0.582-0.774,1.485-0.721,2.111-0.456c0,0-2.365-0.781-1.384-2.515
		c0.799-1.41,1.632-0.967,2.646-2.394c0,0,0.683,0.68-0.665,1.868C18.079,7.285,18.4,8.501,19.02,9.015
		C20.14,9.946,20.146,10.287,20.348,10.93"/>
	<path fill="#24AE5F" stroke="#2B2927" stroke-width="0.2291" stroke-linecap="round" stroke-linejoin="round" d="M20.201,5.139
		c0.477,1.319,1.354,1.368,1.366,2.221c0.01,0.673-0.929,1.234-0.929,1.234c0.211,0.625-0.075,1.453-0.075,1.453
		s-0.191,0.353-0.433,0.011c0,0-0.369-0.823-0.189-1.454c0,0-0.967-0.534-0.992-1.207C18.917,6.544,19.791,6.47,20.201,5.139z"/>
	<path fill="#24AE5F" stroke="#2B2927" stroke-width="0.2291" stroke-linecap="round" stroke-linejoin="round" d="M17.294,9.015
		c0,0-1.025-1.286-2.706-0.194c-0.924,0.6-1.248,0.421-1.248,0.421s0.851,1,1.913,0.292c0.972-0.648,1.912-0.373,1.912-0.373
		S17.505,9.241,17.294,9.015z"/>
	<path fill="#24AE5F" stroke="#2B2927" stroke-width="0.2291" stroke-linecap="round" stroke-linejoin="round" d="M23.031,9.015
		c0,0,1.025-1.286,2.707-0.194c0.924,0.6,1.248,0.421,1.248,0.421s-0.851,1-1.912,0.292c-0.973-0.648-1.913-0.373-1.913-0.373
		S22.82,9.241,23.031,9.015z"/>
	<path fill="#22313F" stroke="#FFFFFF" stroke-width="0.1779" stroke-linecap="round" stroke-linejoin="round" d="M20.1,101.801
		c-0.271,1.291-1.162,1.884-1.472,2.738s0.54,1.083,0.84,0.603c0.299-0.48,0.423-0.404,0.423-0.404s0.153,0.189-0.225,0.753
		c-0.302,0.452-0.127,0.962,0.442,1.023c0.571-0.046,0.759-0.549,0.468-1.009c-0.363-0.574-0.205-0.759-0.205-0.759
		s0.126-0.074,0.413,0.415c0.287,0.488,1.144,0.281,0.855-0.581c-0.289-0.861-1.16-1.474-1.398-2.771
		C20.241,101.81,20.189,101.701,20.1,101.801z"/>
	<path fill="#22313F" stroke="#FFFFFF" stroke-width="0.1779" stroke-linecap="round" stroke-linejoin="round" d="M19.902,102.015
		c0,0-0.871,1.256-2.937,1.497c-0.678,0.079-1.095-0.216-1.079-0.551c0.009-0.176,0.209-0.235,0.391-0.251
		c0.178-0.016,0.27-0.242-0.011-0.299c-0.281-0.058-0.276-0.233-0.262-0.368c0.012-0.116,0.274-0.416,0.863-0.127
		c0.503,0.246,2.222,0.29,2.764-0.049S19.902,102.015,19.902,102.015z"/>
	<path fill="#22313F" stroke="#FFFFFF" stroke-width="0.1779" stroke-linecap="round" stroke-linejoin="round" d="M20.437,102.033
		c0,0,0.702,1.239,2.781,1.563c0.674,0.105,1.102-0.177,1.097-0.513c-0.003-0.176-0.201-0.242-0.382-0.264
		c-0.177-0.022-0.261-0.25,0.022-0.299c0.282-0.048,0.284-0.223,0.275-0.358c-0.008-0.117-0.26-0.425-0.859-0.157
		c-0.512,0.229-2.129,0.248-2.659-0.11C20.181,101.536,20.437,102.033,20.437,102.033z"/>
	<path fill="#22313F" stroke="#FFFFFF" stroke-width="0.1779" stroke-linecap="round" stroke-linejoin="round" d="M20.146,100.005
		c-0.09,0.073-0.351,0.18-0.338,0.729c0.018,0.755-0.379,0.565-0.348,0.794c0.031,0.224,0.485,0.149,0.675,0.083
		c0.166,0.077,0.638,0.164,0.678-0.063c0.04-0.228-0.351-0.052-0.306-0.805c0.032-0.548-0.166-0.686-0.268-0.741
		C20.239,100.001,20.214,99.949,20.146,100.005z"/>
	<path fill="#22313F" stroke="#FFFFFF" stroke-width="0.1408" stroke-linecap="round" stroke-linejoin="round" d="M12.016,120.879
		c0,0-0.744-1.966-2.09-1.966c-1.134,0-1.435,0.496-1.435,0.496s0.45-0.444,0.407-1.133c-0.053-0.85-1.012-0.913-1.417-0.903
		c-0.708,0.018-1.683,0.496-1.931,1.931c0,0,0.549-1.027,1.311-1.027c0.761,0,0.85,0.531,0.85,0.797c0,0.602-0.549,1.151-1.24,1.151
		s-1.417-0.248-2.108-1.612c0,0,0.036,2.32,2.232,2.32c1.523,0,1.594-0.797,3.631-0.797
		C10.936,120.136,12.016,120.879,12.016,120.879z"/>
	<path fill="#22313F" stroke="#FFFFFF" stroke-width="0.1408" stroke-linecap="round" stroke-linejoin="round" d="M28.643,120.977
		c0,0,0.744-1.966,2.09-1.966c1.134,0,1.435,0.496,1.435,0.496s-0.451-0.444-0.408-1.133c0.053-0.851,1.013-0.914,1.417-0.903
		c0.708,0.018,1.683,0.496,1.931,1.93c0,0-0.549-1.027-1.311-1.027c-0.762,0-0.851,0.531-0.851,0.797c0,0.602,0.55,1.151,1.24,1.151
		c0.691,0,1.417-0.248,2.108-1.611c0,0-0.036,2.32-2.232,2.32c-1.523,0-1.594-0.797-3.631-0.797
		C29.724,120.233,28.643,120.977,28.643,120.977z"/>
	<path fill="#D2CECB" stroke="#FFFFFF" stroke-width="0.4582" stroke-linecap="round" stroke-linejoin="round" d="M36.928,50.127
		c-3.021-13.441-13.979-23.7-27.53-25.899c1.47-2.378,3.63-4.309,6.185-5.478c0.825-0.861,1.693-1.68,2.599-2.452l1.355,1.004
		c-1.02,0.848-1.991,1.756-2.907,2.722c-1.677,0.718-3.174,1.793-4.398,3.119c11.377,2.712,20.53,10.875,24.697,21.568V50.127z"/>
	<path fill="#D2CECB" stroke="#FFFFFF" stroke-width="0.4582" stroke-linecap="round" stroke-linejoin="round" d="M2.678,10.53
		v8.727c0,0-1.442,3.997-1.604,5.359V10.409L2.678,10.53z"/>
	<path fill="#D2CECB" stroke="#FFFFFF" stroke-width="0.4582" stroke-linecap="round" stroke-linejoin="round" d="M12.194,10.262
		c4.805,1.876,9.132,4.783,12.683,8.487c2.555,1.169,4.714,3.1,6.185,5.478c-2.857,0.464-5.599,1.286-8.175,2.42l-1.751-0.989
		c2.241-1.077,4.615-1.926,7.092-2.517c-1.224-1.326-2.721-2.4-4.398-3.119c-3.549-3.737-7.919-6.624-12.758-8.423L12.194,10.262z"
		/>
	<path fill="#D2CECB" stroke="#FFFFFF" stroke-width="0.4582" stroke-linecap="round" stroke-linejoin="round" d="M2.688,44.213
		V32.57c0-12.438,6.628-23.174,16.43-29.051h-3.029C6.98,9.937,1.073,20.559,1.073,32.56v17.035
		C1.073,49.594,1.607,46.893,2.688,44.213z"/>
	<path fill="#D2CECB" stroke="#FFFFFF" stroke-width="0.4582" stroke-linecap="round" stroke-linejoin="round" d="M37.78,8.004
		V2.677H24.729c-0.281-0.259-2.637-1.604-2.637-1.604l17.289,0L39.38,9.535c-6.17,0.323-12.015,2.319-16.981,5.632l-1.389-1.045
		C25.896,10.739,31.642,8.582,37.78,8.004z"/>
	<path fill="#D2CECB" stroke="#FFFFFF" stroke-width="0.4582" stroke-linecap="round" stroke-linejoin="round" d="M2.672,2.68
		l17.213-0.014c3.232,1.719,6.154,3.948,8.655,6.586l1.7-0.573c-2.796-3.087-6.134-5.676-9.873-7.618L1.073,1.073V9.53
		c2.192,0.115,4.349,0.442,6.435,0.964l1.19-1.391C6.747,8.568,4.733,8.197,2.676,8.004L2.672,2.68z"/>
	<path fill="#D2CECB" stroke="#FFFFFF" stroke-width="0.4582" stroke-linecap="round" stroke-linejoin="round" d="M3.542,74.832
		c3.02,13.441,13.967,23.7,27.518,25.899c-1.47,2.378-3.63,4.309-6.184,5.478c-0.826,0.861-1.693,1.68-2.599,2.452l-1.355-1.004
		c1.02-0.848,1.991-1.756,2.907-2.722c1.677-0.718,3.175-1.793,4.398-3.119C16.849,99.104,7.708,90.941,3.542,80.249V74.832z"/>
	<path fill="#D2CECB" stroke="#FFFFFF" stroke-width="0.4582" stroke-linecap="round" stroke-linejoin="round" d="M37.78,114.429
		v-8.727c0,0,1.442-3.998,1.605-5.358v14.207L37.78,114.429z"/>
	<path fill="#D2CECB" stroke="#FFFFFF" stroke-width="0.4582" stroke-linecap="round" stroke-linejoin="round" d="M28.264,114.697
		c-4.805-1.877-9.131-4.783-12.683-8.487c-2.554-1.169-4.714-3.1-6.184-5.478c2.857-0.464,5.599-1.286,8.175-2.42l1.75,0.989
		c-2.241,1.077-4.614,1.926-7.092,2.517c1.223,1.326,2.721,2.4,4.397,3.119c3.549,3.737,7.919,6.624,12.759,8.423L28.264,114.697z"
		/>
	<path fill="#D2CECB" stroke="#FFFFFF" stroke-width="0.4582" stroke-linecap="round" stroke-linejoin="round" d="M37.77,80.746
		v11.643c0,12.438-6.629,23.174-16.43,29.051h3.029c9.108-6.418,15.016-17.04,15.016-29.041V75.365
		C39.385,75.365,38.851,78.066,37.77,80.746z"/>
	<path fill="#D2CECB" stroke="#FFFFFF" stroke-width="0.4582" stroke-linecap="round" stroke-linejoin="round" d="M37.764,67.294
		c0,12.519-6.706,23.316-16.607,29.175l1.757,0.838c9.925-6.288,16.471-17.355,16.471-29.98l0.021-34.767
		c0-7.868-2.528-15.138-6.834-21.021l-1.685,0.491c4.305,5.666,6.9,12.781,6.9,20.539L37.764,67.294z"/>
	<path fill="#D2CECB" stroke="#FFFFFF" stroke-width="0.4582" stroke-linecap="round" stroke-linejoin="round" d="M1.076,114.529
		l-0.001-14.045c0.276,1.686,1.604,5.38,1.604,5.38v8.535L1.076,114.529z"/>
	<path fill="#D2CECB" stroke="#FFFFFF" stroke-width="0.4582" stroke-linecap="round" stroke-linejoin="round" d="M2.678,116.955
		v5.328h13.051c0.281,0.259,2.636,1.604,2.636,1.604l-17.289,0l0.001-8.462c6.17-0.323,12.016-2.319,16.981-5.632l1.389,1.045
		C14.561,114.22,8.816,116.377,2.678,116.955z"/>
	<path fill="#D2CECB" stroke="#FFFFFF" stroke-width="0.4582" stroke-linecap="round" stroke-linejoin="round" d="M2.671,92.391
		c0,7.758,2.595,14.874,6.9,20.539l-1.685,0.491c-4.306-5.884-6.834-13.154-6.834-21.022l0.021-34.767
		c0-12.625,6.545-23.693,16.47-29.98l1.758,0.838C9.4,34.349,2.694,45.146,2.694,57.665L2.671,92.391z"/>
	<path fill="#D2CECB" stroke="#FFFFFF" stroke-width="0.4582" stroke-linecap="round" stroke-linejoin="round" d="M37.786,122.279
		l-17.213,0.014c-3.232-1.719-6.154-3.948-8.655-6.586l-1.701,0.573c2.797,3.087,6.135,5.676,9.874,7.619l19.294-0.012v-8.457
		c-2.192-0.115-4.349-0.442-6.435-0.964l-1.19,1.391c1.952,0.536,3.965,0.907,6.022,1.1L37.786,122.279z"/>
	<path fill="#24AE5F" stroke="#2B2927" stroke-width="0.3818" stroke-linecap="round" stroke-linejoin="round" d="M34.763,100.802
		c0.054,0.417,0.029,0.698,0.029,0.698s-0.021,2.506-1.958,2.218c0,0-1.131-0.101-1.131-1.03s1.231-1.059,1.231-1.059
		s0.046,0.637,0.433,0.842c0.691,0.368,1.023-0.271,1.023-0.271c0.233-0.817-0.739-0.934-0.739-0.934
		c3.208-0.671,2.093-4.802,2.093-4.802c-0.35,4.123-3.775,3.266-4.452,5.596c-0.496,1.71,0.696,1.978,0.696,1.978
		c-2.859,0.496-4.34,1.604-4.842,2.859c-0.694,1.732-3.136,1.927-3.136,1.927c2.744,1.08,3.479-1.21,3.479-1.21
		s-0.416,1.569,1.407,2.17c2.526,0.833,3.282-1.198,3.705-2.538c0.426-1.349,1.457-1.966,1.457-1.966
		c-2.787-0.259-2.799,1.85-2.799,1.85c-0.226-0.51-0.874-0.618-1.4-0.466c-0.588,0.168-1.333,1.21-0.36,1.901
		c0.987,0.702,1.76-0.181,1.76-0.181s-0.312,0.98-1.4,0.992c-0.729,0.008-1.78-0.583-1.78-1.487c0-2.451,3.792-3.268,4.784-3.442
		c0.992-0.175,2.376-0.483,2.47-2.839c0.018-0.45-0.015-0.854-0.096-1.25C35.237,100.358,34.937,100.709,34.763,100.802z"/>
	<path fill="#24AE5F" stroke="#2B2927" stroke-width="0.3818" stroke-linecap="round" stroke-linejoin="round" d="M34.395,99.36
		c-0.262-0.619-0.726-1.431-1.382-2.19c0,0,0.307,2.008-1.715,2.514c0,0,1.374-1.638,0.41-3.803l0.215-0.656l0.271,0.315
		c0.616,0.778,1.624,0.852,1.934,0.815c0.562-0.064,1.249-0.629,1.334-1.52c0.07-0.728-0.458-1.484-1.27-1.57
		c-0.821-0.086-1.404,0.324-1.569,0.948c0,0,1.197-0.841,1.758-0.035c0.373,0.535,0.292,1.118-0.405,1.523
		c0,0-1.313,0.632-2.054-0.478c0,0-0.799,4.632-7.454,2.449c0,0,4.818,0.389,6.442-2.644c1.372-2.562,2.8-2.839,3.889-2.761
		c0,0-3.05-3.065,1.661-5.788c0,0-0.902,1.85-0.902,3.367c0,1.517,0.932,2.687,0.817,4.784c-0.146,2.654-3.005,2.304-3.005,2.304
		s0.836,0.82,1.411,2.013C34.783,98.95,34.508,99.304,34.395,99.36z"/>
	<path fill="#24AE5F" stroke="#2B2927" stroke-width="0.3818" stroke-linecap="round" stroke-linejoin="round" d="M31.092,94.715
		c-0.287-0.859-0.15-1.55-0.032-2.139c0.104-0.523,1.096-1.789,2.766-2.654c0.005,0.335,0.076,0.677,0.076,0.677
		c-1.211,0.588-2.367,1.536-2.367,2.994c0,0.102,0.037,0.282,0.044,0.377L31.092,94.715z"/>
	<path fill="#24AE5F" stroke="#2B2927" stroke-width="0.3818" stroke-linecap="round" stroke-linejoin="round" d="M35.604,89.271
		c0.35-0.082,1-0.162,1.384-0.196v0.648c0,0-0.761,0.08-1.428,0.264C35.56,89.988,35.55,89.607,35.604,89.271z"/>
	<path fill="#24AE5F" stroke="#2B2927" stroke-width="0.3818" stroke-linecap="round" stroke-linejoin="round" d="M5.865,100.794
		c-0.054,0.416-0.03,0.697-0.03,0.697s0.022,2.507,1.958,2.219c0,0,1.131-0.101,1.131-1.03c0-0.929-1.231-1.059-1.231-1.059
		s-0.046,0.638-0.432,0.843c-0.691,0.367-1.023-0.271-1.023-0.271c-0.234-0.817,0.739-0.934,0.739-0.934
		c-3.209-0.671-2.092-4.802-2.092-4.802c0.35,4.123,3.775,3.266,4.451,5.596c0.497,1.71-0.696,1.977-0.696,1.977
		c2.859,0.496,4.34,1.604,4.842,2.859c0.694,1.733,3.136,1.927,3.136,1.927c-2.744,1.081-3.479-1.21-3.479-1.21
		s0.416,1.57-1.407,2.17c-2.525,0.833-3.282-1.198-3.705-2.538c-0.426-1.349-1.457-1.966-1.457-1.966
		c2.788-0.259,2.799,1.85,2.799,1.85c0.226-0.51,0.874-0.618,1.4-0.467c0.587,0.169,1.333,1.21,0.36,1.901
		c-0.987,0.702-1.76-0.18-1.76-0.18s0.313,0.98,1.4,0.992c0.729,0.008,1.779-0.583,1.779-1.488c0-2.45-3.792-3.267-4.784-3.442
		c-0.992-0.175-2.376-0.483-2.47-2.839c-0.018-0.449,0.015-0.853,0.096-1.25C5.391,100.351,5.691,100.701,5.865,100.794z"/>
	<path fill="#24AE5F" stroke="#2B2927" stroke-width="0.3818" stroke-linecap="round" stroke-linejoin="round" d="M6.234,99.353
		c0.262-0.618,0.726-1.431,1.382-2.189c0,0-0.308,2.008,1.715,2.514c0,0-1.375-1.638-0.411-3.803l-0.215-0.656l-0.271,0.315
		C7.818,96.312,6.81,96.385,6.5,96.35c-0.562-0.065-1.249-0.63-1.335-1.521c-0.069-0.727,0.458-1.484,1.27-1.569
		c0.821-0.086,1.404,0.324,1.569,0.947c0,0-1.197-0.84-1.758-0.035c-0.373,0.535-0.292,1.118,0.405,1.523
		c0,0,1.313,0.632,2.054-0.478c0,0,0.799,4.632,7.454,2.449c0,0-4.818,0.389-6.442-2.644c-1.372-2.562-2.8-2.839-3.89-2.762
		c0,0,3.05-3.065-1.66-5.788c0,0,0.901,1.85,0.901,3.367c0,1.517-0.932,2.687-0.816,4.784c0.146,2.655,3.004,2.305,3.004,2.305
		s-0.836,0.82-1.411,2.013C5.845,98.942,6.121,99.296,6.234,99.353z"/>
	<path fill="#24AE5F" stroke="#2B2927" stroke-width="0.3818" stroke-linecap="round" stroke-linejoin="round" d="M9.536,94.707
		c0.287-0.859,0.15-1.55,0.032-2.139c-0.104-0.523-1.096-1.789-2.766-2.654c-0.005,0.335-0.076,0.677-0.076,0.677
		c1.211,0.589,2.367,1.535,2.367,2.994c0,0.103-0.038,0.282-0.044,0.377L9.536,94.707z"/>
	<path fill="#24AE5F" stroke="#2B2927" stroke-width="0.3818" stroke-linecap="round" stroke-linejoin="round" d="M5.024,89.265
		c-0.349-0.083-1.099-0.162-1.483-0.197v0.648c0,0,0.86,0.08,1.527,0.265C5.068,89.98,5.079,89.6,5.024,89.265z"/>
	<path fill="#24AE5F" stroke="#2B2927" stroke-width="0.3818" stroke-linecap="round" stroke-linejoin="round" d="M20.11,114.029
		c-0.169,0.648-0.158,0.989-1.23,1.951c-0.592,0.532-0.852,1.756,0.199,2.614c1.408,1.149,0.964,1.845,0.964,1.845
		c-1.085-1.397-2.101-0.928-2.97-2.314c-1.069-1.705,1.255-2.552,1.255-2.552c-0.613,0.282-1.512,0.361-2.132-0.396
		c-0.619-0.754,0.315-1.701,1.352-1.549c1.216,0.178,1.195,1.053,1.195,1.053c-0.412-0.172-0.569-0.257-0.902-0.149
		c-0.333,0.108-0.338,0.683,0.51,0.443c1.472-0.417,1.521-2.476,1.521-2.476s0.23-0.265,0.49,0.014c0,0,0.101,2.223,1.556,2.412
		c0.893,0.116,0.825-0.358,0.487-0.457s-0.491-0.009-0.894,0.175c0,0-0.065-0.873,1.141-1.086c1.028-0.182,2.009,0.738,1.429,1.509
		c-0.582,0.774-1.484,0.721-2.111,0.456c0,0,2.366,0.781,1.384,2.515c-0.798,1.41-1.632,0.967-2.646,2.394
		c0,0-0.683-0.68,0.665-1.868c1.007-0.887,0.686-2.103,0.067-2.617C20.318,115.013,20.312,114.672,20.11,114.029"/>
	<path fill="#24AE5F" stroke="#2B2927" stroke-width="0.3818" stroke-linecap="round" stroke-linejoin="round" d="M20.257,119.82
		c-0.477-1.319-1.354-1.368-1.366-2.221c-0.009-0.673,0.93-1.234,0.93-1.234c-0.211-0.625,0.075-1.453,0.075-1.453
		s0.191-0.353,0.433-0.011c0,0,0.37,0.823,0.19,1.455c0,0,0.967,0.533,0.991,1.207C21.541,118.415,20.667,118.489,20.257,119.82z"/>
	<path fill="#24AE5F" stroke="#2B2927" stroke-width="0.3818" stroke-linecap="round" stroke-linejoin="round" d="M23.164,115.944
		c0,0,1.025,1.286,2.707,0.194c0.924-0.6,1.248-0.421,1.248-0.421s-0.851-1-1.913-0.292c-0.972,0.648-1.912,0.373-1.912,0.373
		S22.953,115.718,23.164,115.944z"/>
	<path fill="#24AE5F" stroke="#2B2927" stroke-width="0.3818" stroke-linecap="round" stroke-linejoin="round" d="M17.427,115.944
		c0,0-1.025,1.286-2.707,0.194c-0.924-0.6-1.248-0.421-1.248-0.421s0.851-1,1.912-0.292c0.973,0.648,1.912,0.373,1.912,0.373
		S17.638,115.718,17.427,115.944z"/>
</g>
</svg>
